<svg xmlns="http://www.w3.org/2000/svg" width="19.631" height="19.554" viewBox="0 0 19.631 19.554"><defs><style>.a{fill:#fff;}</style></defs><g transform="translate(-2.63 -2.32)"><path class="a" d="M22.234,11.353a9.811,9.811,0,0,0-7.806-8.831,9.928,9.928,0,0,0-1.993-.2A9.8,9.8,0,0,0,2.63,12.1v2.713a1.628,1.628,0,0,0,3.257,0V12.1A6.559,6.559,0,0,1,19,12.1v2.713a1.628,1.628,0,0,0,3.257,0V12.1C22.263,11.847,22.252,11.6,22.234,11.353Z"/><path class="a" d="M20.768,39.6a3.809,3.809,0,0,1-3.712-2.975,3.87,3.87,0,0,1-.093-.838V33.069a4.358,4.358,0,0,0-8.716,0v2.713a3.8,3.8,0,0,1-3.8,3.81,1.626,1.626,0,0,0,0,3.253,7.065,7.065,0,0,0,7.057-7.063V33.069a1.1,1.1,0,0,1,2.2,0v2.713a7.082,7.082,0,0,0,7.071,7.065,1.626,1.626,0,1,0-.012-3.253Z" transform="translate(-0.159 -20.973)"/></g></svg>