<svg xmlns="http://www.w3.org/2000/svg" width="176" height="122" viewBox="0 0 176 122"><defs><style>.a{fill:#fff;}.b{fill:none;stroke:#d2d8df;stroke-linecap:round;stroke-miterlimit:10;stroke-width:2.921px;}.c{fill:#ebecee;}.d{fill:#d1d8df;}.e{fill:#c33f6d;}</style></defs><g transform="translate(-100 -226)"><rect class="a" width="176" height="122" transform="translate(100 226)"/><g transform="translate(116.128 227.065)"><g transform="translate(0.395)"><path class="b" d="M0,0V1.215" transform="translate(17.889 91.035)"/><g transform="translate(14 91.693)"><path class="b" d="M0,0,.992,1.022" transform="translate(1.161 0)"/><path class="b" d="M0,0H1.4" transform="translate(0 2.72)"/><path class="b" d="M0,1.022.992,0" transform="translate(1.047 4.466)"/></g><path class="b" d="M0,1.215V0" transform="translate(11.889 55.298)"/><path class="b" d="M.81.81,0,0" transform="translate(19.103 95.894)"/><path class="b" d="M1.215,0H0" transform="translate(20.318 94.679)"/><path class="b" d="M.81,0,0,.81" transform="translate(19.913 91.845)"/><g transform="translate(23 9)"><path class="b" d="M0,0V.81" transform="translate(69.069)"/><path class="b" d="M0,0H.81" transform="translate(66.64 2.429)"/><path class="b" d="M0,.81V0" transform="translate(69.069 4.048)"/><path class="b" d="M.81,0H0" transform="translate(70.284 2.429)"/></g><path class="b" d="M0,0V1.215" transform="translate(22.107 34.007)"/><path class="b" d="M0,0H1.215" transform="translate(18.463 37.651)"/><path class="b" d="M0,1.215V0" transform="translate(22.107 39.675)"/><path class="b" d="M1.215,0H0" transform="translate(24.131 37.651)"/><g transform="translate(10.477 11.204)"><path class="b" d="M1.752,0A1.753,1.753,0,1,1,0,1.753" transform="translate(107.024 15.948)"/><path class="b" d="M5.5,2.344A2.763,2.763,0,1,1,2.371,0" transform="translate(98.275 74.644)"/><path class="c" d="M0,2.966A5.109,5.109,0,0,0,3,0a4.1,4.1,0,0,0,3,2.75A5,5,0,0,0,3,5.931C2.857,4.731.972,3.141,0,2.966" transform="translate(115.795 53.081)"/><path class="c" d="M0,1.483A2.553,2.553,0,0,0,1.5,0,2.053,2.053,0,0,0,3,1.375,2.5,2.5,0,0,0,1.5,2.966,2.389,2.389,0,0,0,0,1.483" transform="translate(0 64.925)"/><path class="d" d="M2.717,1.359A1.359,1.359,0,1,1,1.359,0,1.359,1.359,0,0,1,2.717,1.359" transform="translate(47.939 -7.269)"/><path class="c" d="M4.542,2.271A2.271,2.271,0,1,1,2.271,0,2.271,2.271,0,0,1,4.542,2.271" transform="translate(85.348 93.145)"/><path class="c" d="M3.6,1.8A1.8,1.8,0,1,1,1.8,0,1.8,1.8,0,0,1,3.6,1.8" transform="translate(112.234 29.783)"/><path class="b" d="M2.271,1.136A1.135,1.135,0,1,1,1.135,0,1.136,1.136,0,0,1,2.271,1.136Z" transform="translate(32.778 90.6)"/><path class="b" d="M2.717,1.359A1.359,1.359,0,1,1,1.359,0,1.359,1.359,0,0,1,2.717,1.359Z" transform="translate(29.656 9)"/><path class="b" d="M2.281,3.255a1.682,1.682,0,1,1,.974-2.171A1.682,1.682,0,0,1,2.281,3.255Z" transform="translate(66.749 101.059)"/></g><g transform="translate(33.811 21.913)"><path class="e" d="M37.659,33.989l-8.573-8.573,8.573-8.573a2.6,2.6,0,1,0-3.677-3.677L25.41,21.74l-8.573-8.573a2.487,2.487,0,0,0-3.677,0,2.512,2.512,0,0,0,0,3.677l8.573,8.573L13.16,33.989a2.514,2.514,0,0,0,0,3.677,2.582,2.582,0,0,0,3.677,0l8.573-8.573,8.573,8.573a2.612,2.612,0,0,0,3.677,0A2.582,2.582,0,0,0,37.659,33.989Z" transform="translate(11.802 11.796)"/><path class="e" d="M37.212,7.93A29.287,29.287,0,0,1,57.921,57.921,29.287,29.287,0,0,1,16.5,16.5,29.088,29.088,0,0,1,37.212,7.93m0-4.555A33.837,33.837,0,1,0,71.049,37.212,33.832,33.832,0,0,0,37.212,3.375Z"/></g></g></g></g></svg>