<svg xmlns="http://www.w3.org/2000/svg" width="176" height="122" viewBox="0 0 176 122"><defs><style>.a{fill:#fff;}.b,.e{fill:none;stroke-linecap:round;}.b{stroke:#d2d8df;stroke-miterlimit:10;stroke-width:2.921px;}.c{fill:#ebecee;}.d{fill:#d1d8df;}.e{stroke:#169afa;stroke-linejoin:round;stroke-width:5px;}</style></defs><g transform="translate(-55.391 91.822)"><rect class="a" width="176" height="122" transform="translate(55.391 -91.822)"/><g transform="translate(67.995 -92.009)"><g transform="translate(0.395)"><path class="b" d="M0,0V1.372" transform="translate(9.392 46.904)"/><g transform="translate(5 47.647)"><path class="b" d="M0,0,1.121,1.154" transform="translate(1.311 0)"/><path class="b" d="M0,0H1.585" transform="translate(0 3.072)"/><path class="b" d="M0,1.154,1.121,0" transform="translate(1.183 5.045)"/></g><path class="b" d="M0,1.372V0" transform="translate(9.392 52.849)"/><path class="b" d="M.915.915,0,0" transform="translate(10.764 52.392)"/><path class="b" d="M1.372,0H0" transform="translate(12.136 51.02)"/><path class="b" d="M.915,0,0,.915" transform="translate(11.679 47.819)"/><path class="b" d="M0,0V.915" transform="translate(84.015 10)"/><path class="b" d="M0,0H.915" transform="translate(81.271 12.744)"/><path class="b" d="M0,.915V0" transform="translate(84.015 14.573)"/><path class="b" d="M.915,0H0" transform="translate(85.387 12.744)"/><path class="b" d="M0,0V1.372" transform="translate(26.97 65.412)"/><path class="b" d="M0,0H1.372" transform="translate(22.854 69.527)"/><path class="b" d="M0,1.372V0" transform="translate(26.97 71.814)"/><path class="b" d="M1.372,0H0" transform="translate(29.256 69.527)"/><g transform="translate(11.833 12.655)"><path class="b" d="M1.979,0A1.98,1.98,0,1,1,0,1.98" transform="translate(109.59 75.618)"/><path class="c" d="M0,3.35A5.77,5.77,0,0,0,3.393,0,4.637,4.637,0,0,0,6.787,3.106,5.643,5.643,0,0,0,3.393,6.7C3.227,5.344,1.1,3.548,0,3.35" transform="translate(117.626 33.308)"/><path class="c" d="M0,1.675A2.884,2.884,0,0,0,1.7,0a2.319,2.319,0,0,0,1.7,1.553,2.821,2.821,0,0,0-1.7,1.8A2.7,2.7,0,0,0,0,1.675" transform="translate(0 73.334)"/><path class="d" d="M3.069,1.535A1.535,1.535,0,1,1,1.535,0,1.535,1.535,0,0,1,3.069,1.535" transform="translate(11.838 23.861)"/><path class="c" d="M5.13,2.566A2.565,2.565,0,1,1,2.565,0,2.565,2.565,0,0,1,5.13,2.566" transform="translate(108.252 12.953)"/><path class="c" d="M4.069,2.035A2.034,2.034,0,1,1,2.035,0,2.035,2.035,0,0,1,4.069,2.035" transform="translate(129.842 -7.468)"/><path class="b" d="M2.565,1.283A1.282,1.282,0,1,1,1.282,0,1.283,1.283,0,0,1,2.565,1.283Z" transform="translate(37.023 102.334)"/><path class="b" d="M3.069,1.535A1.535,1.535,0,1,1,1.535,0,1.535,1.535,0,0,1,3.069,1.535Z" transform="translate(35.755 0)"/><path class="b" d="M2.576,3.677a1.9,1.9,0,1,1,1.1-2.452A1.9,1.9,0,0,1,2.576,3.677Z" transform="translate(93.394 95.148)"/></g></g><g transform="translate(40.951 27.472)"><path class="e" d="M65.305,34.153A31.153,31.153,0,1,1,34.153,3,31.153,31.153,0,0,1,65.305,34.153Z" transform="translate(0)"/><path class="e" d="M18,30.461V18" transform="translate(16.153 16.153)"/><path class="e" d="M18,12h0" transform="translate(16.153 9.692)"/></g></g></g></svg>