<svg xmlns="http://www.w3.org/2000/svg" xmlns:xlink="http://www.w3.org/1999/xlink" width="279" height="268" viewBox="0 0 279 268"><defs><style>.a{fill:#fff;}.b{fill:#b28b67;}.c{fill:#191847;}.d,.e,.h,.j{fill:none;}.d{stroke:#ff6ad3;}.d,.e,.h,.j,.l{stroke-linecap:round;}.d,.e,.h{stroke-linejoin:round;stroke-width:2px;}.e{stroke:#5432d3;}.f{fill:#ff6ad3;}.g{fill:#4c2bc5;}.h{stroke:#fff;}.i{opacity:0.197;}.i,.j,.k{isolation:isolate;}.j,.l{stroke:#4d2cc8;stroke-miterlimit:10;stroke-width:3px;}.j,.k{mix-blend-mode:overlay;}.l{fill:#4d2cc8;}.m{filter:url(#k);}.n{filter:url(#i);}.o{filter:url(#g);}.p{filter:url(#e);}.q{filter:url(#c);}.r{filter:url(#a);}</style><filter id="a" x="51" y="41" width="182" height="182" filterUnits="userSpaceOnUse"><feOffset dy="1" input="SourceAlpha"/><feGaussianBlur stdDeviation="13" result="b"/><feFlood flood-opacity="0.082"/><feComposite operator="in" in2="b"/><feComposite in="SourceGraphic"/></filter><filter id="c" x="130" y="0" width="149" height="149" filterUnits="userSpaceOnUse"><feOffset dy="1" input="SourceAlpha"/><feGaussianBlur stdDeviation="13" result="d"/><feFlood flood-opacity="0.082"/><feComposite operator="in" in2="d"/><feComposite in="SourceGraphic"/></filter><filter id="e" x="0" y="119" width="149" height="149" filterUnits="userSpaceOnUse"><feOffset dy="1" input="SourceAlpha"/><feGaussianBlur stdDeviation="13" result="f"/><feFlood flood-opacity="0.082"/><feComposite operator="in" in2="f"/><feComposite in="SourceGraphic"/></filter><filter id="g" x="28" y="5" width="124" height="124" filterUnits="userSpaceOnUse"><feOffset dy="1" input="SourceAlpha"/><feGaussianBlur stdDeviation="13" result="h"/><feFlood flood-opacity="0.082"/><feComposite operator="in" in2="h"/><feComposite in="SourceGraphic"/></filter><filter id="i" x="150" y="138" width="124" height="124" filterUnits="userSpaceOnUse"><feOffset dy="1" input="SourceAlpha"/><feGaussianBlur stdDeviation="13" result="j"/><feFlood flood-opacity="0.082"/><feComposite operator="in" in2="j"/><feComposite in="SourceGraphic"/></filter><filter id="k" x="124" y="119" width="59" height="59" filterUnits="userSpaceOnUse"><feOffset dy="3" input="SourceAlpha"/><feGaussianBlur stdDeviation="3" result="l"/><feFlood flood-opacity="0.161"/><feComposite operator="in" in2="l"/><feComposite in="SourceGraphic"/></filter></defs><g transform="translate(-41 -180)"><g class="r" transform="matrix(1, 0, 0, 1, 41, 180)"><rect class="a" width="104" height="104" rx="23" transform="translate(90 79)"/></g><g class="q" transform="matrix(1, 0, 0, 1, 41, 180)"><rect class="a" width="71" height="71" rx="23" transform="translate(169 38)"/></g><g class="p" transform="matrix(1, 0, 0, 1, 41, 180)"><rect class="a" width="71" height="71" rx="23" transform="translate(39 157)"/></g><g class="o" transform="matrix(1, 0, 0, 1, 41, 180)"><rect class="a" width="46" height="46" rx="23" transform="translate(67 43)"/></g><g class="n" transform="matrix(1, 0, 0, 1, 41, 180)"><rect class="a" width="46" height="46" rx="17" transform="translate(189 176)"/></g><g transform="translate(160 276)"><path class="b" d="M0,66,7.475,31.182C3.307,26.293.485,20.3.956,13.584,2.315-5.764,29.268-1.507,34.51,8.258s4.62,34.536-2.155,36.281c-2.7.7-8.459-1.009-14.318-4.538l3.678,26Z" transform="translate(0)"/></g><path class="c" d="M18.15,40.468c-1.448-4.374-2-16.965-2.134-20.686a5.446,5.446,0,0,0-.647-.038A5.39,5.39,0,0,0,11.6,28.989c-1.247,1.76-2.644,3.6-4.246,5.5-6.017-3.61-10.481-14.177-4.6-24.327C4.385,5.185,8.066,2.529,12.413,1.3A15.637,15.637,0,0,1,22.675.539C28.724,1.058,34.125,2.9,35.656,4c0,5.726-1.11,7.425-10.587,7.276-2.329,1.23-4.119,3.347-5.984,6.124.013.185,1.266,17.243,6.549,17.243,5.311,0,9.817-3.372,12.147-3.372,1.7,0,1.319,2.126.193,3.7-.929,1.3-5.453,2.554-5.453,4.57,0,1.138,1.14,1.137,2.132,1.134.765,0,1.442,0,1.442.518,0,1.977.629,5.7-2.8,5.7C29.817,46.89,19.857,45.624,18.15,40.468Z" transform="translate(160.231 274.51)"/><g transform="translate(123.982 240.675)"><g transform="translate(0 0)"><path class="d" d="M755.085,1015.167l-6.54,5.311-6.512-5.311" transform="translate(-741.519 -1014.665)"/><path class="e" d="M754.769,1017.448v5.785a1.561,1.561,0,0,1-1.561,1.561H742.279a1.561,1.561,0,0,1-1.561-1.561v-8.181a1.171,1.171,0,0,1,1.171-1.171h12.88l-.485.474" transform="translate(-740.718 -1013.881)"/></g></g><g transform="translate(106.967 357.92)"><g transform="translate(0 0)"><rect class="e" width="17.015" height="29.14" rx="3"/><ellipse class="f" cx="1.993" cy="1.993" rx="1.993" ry="1.993" transform="translate(6.514 22.054)"/></g></g><g transform="translate(245.331 369.246)"><g transform="translate(3.789 3.524)"><rect class="d" width="5.365" height="5.365" rx="2.683" transform="matrix(0.707, 0.707, -0.707, 0.707, 3.794, 0)"/></g><path class="e" d="M382.172,1197.09a7.587,7.587,0,0,1,7.577,7.791c-.286,6.883-7.577,11.525-7.577,11.525" transform="translate(-374.589 -1197.09)"/><path class="d" d="M368.953,1216.687c.094.3.2.6.318.888,1.956,4.845,6.774,7.913,6.774,7.913" transform="translate(-368.463 -1206.172)"/><path class="d" d="M375.622,1197.09a7.587,7.587,0,0,0-7.577,7.791" transform="translate(-368.039 -1197.09)"/></g><g transform="translate(234.517 242.22)"><g transform="translate(4.66 0)"><ellipse class="d" cx="6.119" cy="6.119" rx="6.119" ry="6.119" transform="translate(0)"/></g><path class="e" d="M575,486.377h0a9.323,9.323,0,0,0-9.323-9.323h-2.915a9.322,9.322,0,0,0-9.322,9.323h0" transform="translate(-553.445 -464.817)"/></g><g class="m" transform="matrix(1, 0, 0, 1, 41, 180)"><circle class="g" cx="20.5" cy="20.5" r="20.5" transform="translate(133 125)"/></g><g transform="translate(185.695 313.739)"><g transform="translate(0 0)"><g transform="translate(5.192 8.101)"><line class="h" y1="5.202" x2="5.202" transform="translate(2.875)"/><g transform="translate(0 2.582)"><line class="h" x1="2.875" y1="2.621"/></g></g><path class="h" d="M756.8,573.217a12.685,12.685,0,0,0,9.043-12.148V554.02l-9.043-3.451-3.393,1.295" transform="translate(-747.752 -550.569)"/><path class="h" d="M746.926,554.535l-2.5.956v7.049a12.685,12.685,0,0,0,9.044,12.148" transform="translate(-744.421 -552.04)"/><path class="h" d="M758.8,558.813" transform="translate(-749.752 -553.626)"/></g></g><g class="i" transform="translate(91.429 192.014)"><ellipse class="j" cx="6.913" cy="6.913" rx="6.913" ry="6.913" transform="translate(89.425 217.049)"/><ellipse class="j" cx="6.913" cy="6.913" rx="6.913" ry="6.913" transform="translate(192.223 0)"/><g class="k" transform="translate(0 107.135)"><path class="l" d="M361.079,706v10.636" transform="translate(-355.761 -706)"/><path class="l" d="M351.079,716h10.636" transform="translate(-351.079 -710.682)"/></g></g></g></svg>