<svg xmlns="http://www.w3.org/2000/svg" width="14.676" height="14.676" viewBox="0 0 14.676 14.676"><g transform="translate(-741.942 -1013.881)"><path d="M7.34,0C5.345,0,5.1.01,4.316.043A5.461,5.461,0,0,0,2.534.384a3.6,3.6,0,0,0-1.3.848,3.558,3.558,0,0,0-.848,1.3A5.437,5.437,0,0,0,.045,4.314C.009,5.1,0,5.343,0,7.338s.01,2.243.043,3.024a5.474,5.474,0,0,0,.342,1.782,3.6,3.6,0,0,0,.848,1.3,3.558,3.558,0,0,0,1.3.848,5.516,5.516,0,0,0,1.782.342c.781.035,1.029.043,3.024.043s2.243-.01,3.024-.043a5.54,5.54,0,0,0,1.782-.342,3.6,3.6,0,0,0,1.3-.848,3.539,3.539,0,0,0,.848-1.3,5.516,5.516,0,0,0,.342-1.782c.035-.781.043-1.029.043-3.024s-.01-2.243-.043-3.024a5.524,5.524,0,0,0-.342-1.782,3.6,3.6,0,0,0-.848-1.3,3.539,3.539,0,0,0-1.3-.848A5.451,5.451,0,0,0,10.364.043C9.583.007,9.335,0,7.34,0Zm0,1.321c1.959,0,2.193.01,2.967.043a4.063,4.063,0,0,1,1.361.254,2.288,2.288,0,0,1,.846.549,2.262,2.262,0,0,1,.547.844,4.063,4.063,0,0,1,.254,1.361c.033.774.043,1.009.043,2.967s-.01,2.193-.045,2.967a4.184,4.184,0,0,1-.258,1.361,2.389,2.389,0,0,1-.55.846,2.315,2.315,0,0,1-.846.547,4.069,4.069,0,0,1-1.366.254c-.778.033-1.008.043-2.972.043s-2.193-.01-2.972-.045a4.223,4.223,0,0,1-1.366-.258,2.3,2.3,0,0,1-.844-.55,2.205,2.205,0,0,1-.549-.846,4.1,4.1,0,0,1-.258-1.366c-.026-.769-.039-1.008-.039-2.962s.012-2.193.039-2.972a4.1,4.1,0,0,1,.258-1.366,2.153,2.153,0,0,1,.549-.846,2.187,2.187,0,0,1,.844-.55,4.094,4.094,0,0,1,1.359-.256C5.12,1.311,5.349,1.3,7.31,1.3Zm0,2.251a3.767,3.767,0,1,0,3.767,3.767A3.766,3.766,0,0,0,7.34,3.572Zm0,6.213A2.446,2.446,0,1,1,9.786,7.338,2.445,2.445,0,0,1,7.34,9.785Zm4.8-6.364a.881.881,0,1,1-.882-.879.882.882,0,0,1,.882.879Z" transform="translate(741.94 1013.881)"/></g></svg>