<svg xmlns="http://www.w3.org/2000/svg" width="35" height="35" viewBox="0 0 35 35"><defs><style>.a{fill:none;stroke:#2c1f9a;stroke-miterlimit:10;}.b{fill:#2c1f9a;}</style></defs><g transform="translate(0.5 0.5)"><rect class="a" width="34" height="34" rx="17"/><path class="b" d="M15.162,4.841a6.343,6.343,0,0,1-1.788.49,3.135,3.135,0,0,0,1.37-1.724,6.5,6.5,0,0,1-1.981.75A3.115,3.115,0,0,0,7.456,7.192,8.815,8.815,0,0,1,1.037,3.948,3.066,3.066,0,0,0,.614,5.517,3.112,3.112,0,0,0,2,8.107,3.1,3.1,0,0,1,.589,7.72v.038a3.118,3.118,0,0,0,2.5,3.056,3.131,3.131,0,0,1-1.4.054A3.129,3.129,0,0,0,4.6,13.032a6.253,6.253,0,0,1-3.863,1.33A6.177,6.177,0,0,1,0,14.32a8.858,8.858,0,0,0,4.786,1.4,8.8,8.8,0,0,0,8.861-8.855c0-.131,0-.265-.01-.4a6.235,6.235,0,0,0,1.558-1.613Z" transform="translate(9.759 7.058)"/></g></svg>