<svg xmlns="http://www.w3.org/2000/svg" width="38.089" height="38.09" viewBox="0 0 38.089 38.09"><defs><style>.a{fill:none;stroke:#fff;stroke-linecap:round;stroke-linejoin:round;stroke-width:2px;}</style></defs><g transform="translate(-1304.536 -923.791)"><path class="a" d="M1323.988,957.589l3.291,3.292,1.519-1.519a6,6,0,0,0,1.756-4.148l.1-6.516,5.154-5.154a19.548,19.548,0,0,0,5.239-18.178,19.546,19.546,0,0,0-18.177,5.24l-5.154,5.153-6.517.1a6,6,0,0,0-4.147,1.756l-1.519,1.519,3.36,3.359"/><path class="a" d="M1332.822,933.594a3.354,3.354,0,0,1-.868,5.365,3.246,3.246,0,0,1-2.992,0,3.352,3.352,0,0,1-.586-5.617"/><line class="a" x1="5.899" y2="5.9" transform="translate(1310.055 945.22)"/><line class="a" x1="4.598" y2="4.597" transform="translate(1316.531 950.531)"/></g></svg>