<svg xmlns="http://www.w3.org/2000/svg" width="15.603" height="15.604" viewBox="0 0 15.603 15.604"><defs><style>.a{fill:#ff6ad3;}.b{fill:#2c1f9a;}</style></defs><g transform="translate(-741.043 -1013.112)"><path class="a" d="M11.331,8.38a1.834,1.834,0,0,0-.739,1.1,2.975,2.975,0,0,1,1.744.853A3.029,3.029,0,1,1,7.16,12.475a2.973,2.973,0,0,1,.4-1.46,5.332,5.332,0,0,1-.094-.967,5.2,5.2,0,0,1,.076-.892A4.579,4.579,0,0,0,7.2,9.48a4.21,4.21,0,0,0-.4,5.536L5.777,16.039,4.564,14.825l-.874.853L4.9,16.892,3.69,18.105l.874.874,1.213-1.213L6.99,18.979l.853-.874L6.629,16.892l1.024-1.023A4.24,4.24,0,1,0,11.331,8.38Z" transform="translate(737.353 1009.737)"/><path class="b" d="M15.047,3.375V4.588h2.161L15.16,6.655a4.24,4.24,0,1,0-3.678,7.488,1.834,1.834,0,0,0,.739-1.1,3.02,3.02,0,0,1-2.635-3,3.033,3.033,0,0,1,6.067,0,2.973,2.973,0,0,1-.4,1.46,5.332,5.332,0,0,1,.094.967,5.2,5.2,0,0,1-.076.892,4.578,4.578,0,0,0,.341-.323,4.211,4.211,0,0,0,.4-5.537L18.08,5.461V7.622h1.213V3.375Z" transform="translate(737.353 1009.737)"/></g></svg>