<svg xmlns="http://www.w3.org/2000/svg" width="18" height="18" viewBox="0 0 18 18"><defs><style>.a{fill:#40b3e0;}.b{fill:#fff;}.c{fill:#d2e5f1;}.d{fill:#b5cfe4;}</style></defs><g transform="translate(-739.942 -1011.881)"><g transform="translate(739.942 1011.881)"><path class="a" d="M9,0a9,9,0,1,0,9,9A9,9,0,0,0,9,0Z"/><path class="b" d="M16.6,10.043l-1.608,8.1a.6.6,0,0,1-.843.292L10.435,15.6l-1.349-.652L6.815,14.18s-.348-.123-.382-.394.394-.416.394-.416l9.026-3.541s.742-.326.742.214" transform="translate(-3.216 -4.866)"/><path class="c" d="M12.8,19.722s-.109-.01-.243-.437-.821-2.675-.821-2.675l5.452-3.462s.315-.191.3,0c0,0,.056.034-.112.191S13.1,17.194,13.1,17.194" transform="translate(-5.87 -6.531)"/><path class="d" d="M15.576,22.527l-1.467,1.338a.257.257,0,0,1-.24.033l.281-2.485" transform="translate(-6.935 -10.706)"/></g></g></svg>