<svg xmlns="http://www.w3.org/2000/svg" width="35" height="35" viewBox="0 0 35 35"><defs><style>.a{fill:none;stroke:#2c1f9a;stroke-miterlimit:10;}.b{fill:#2c1f9a;}</style></defs><g transform="translate(0.5 0.5)"><rect class="a" width="34" height="34" rx="17"/><path class="b" d="M16.145,3.375V4.706h2.37L16.27,6.972a4.65,4.65,0,1,0-4.033,8.212,2.012,2.012,0,0,0,.81-1.206,3.312,3.312,0,0,1-2.89-3.285,3.327,3.327,0,0,1,6.653,0,3.261,3.261,0,0,1-.436,1.6,5.848,5.848,0,0,1,.1,1.06,5.707,5.707,0,0,1-.083.978,5.021,5.021,0,0,0,.374-.354,4.618,4.618,0,0,0,.437-6.072l2.266-2.244v2.37H20.8V3.375ZM12.07,8.864a2.011,2.011,0,0,0-.81,1.206,3.263,3.263,0,0,1,1.913.936A3.322,3.322,0,1,1,7.5,13.355a3.261,3.261,0,0,1,.436-1.6,5.848,5.848,0,0,1-.1-1.06,5.707,5.707,0,0,1,.083-.978,5.022,5.022,0,0,0-.374.355A4.617,4.617,0,0,0,7.1,16.142L5.979,17.264,4.648,15.933l-.958.936L5.021,18.2,3.69,19.53l.958.958,1.331-1.331,1.331,1.331.935-.958L6.914,18.2l1.123-1.122A4.65,4.65,0,1,0,12.07,8.865Z" transform="translate(4.656 5.102)"/></g></svg>