<svg xmlns="http://www.w3.org/2000/svg" xmlns:xlink="http://www.w3.org/1999/xlink" width="302.295" height="58.881" viewBox="0 0 302.295 58.881"><defs><style>.a{fill:#fff;}.b{fill:url(#a);}.c{isolation:isolate;}</style><linearGradient id="a" x1="1" y1="1.374" x2="0" y2="-0.296" gradientUnits="objectBoundingBox"><stop offset="0" stop-color="#fad961"/><stop offset="1" stop-color="#f76b1c"/></linearGradient></defs><g transform="translate(-491 -6037)"><g transform="translate(400.687 5968.279)"><g transform="translate(0 0.123)"><path class="a" d="M0,18.653A18.653,18.653,0,0,1,18.653,0H31.7c6.236,0,12.447,6.21,12.447,12.447h0c0,6.236-6.21,12.447-12.447,12.447H9.508A12.906,12.906,0,0,0,0,29.222H0Z" transform="translate(121.528 120.476) rotate(-135)"/><path class="b" d="M0,0H36.684a14.3,14.3,0,0,1,14.3,14.3v0a14.3,14.3,0,0,1-14.3,14.3H14.3A14.3,14.3,0,0,1,0,14.3V0A0,0,0,0,1,0,0Z" transform="translate(108.37 107.256) rotate(-45)"/></g><g class="c" transform="translate(-189.226 -331.576)"><g class="c"><path class="a" d="M368.955,413.454l6.065,18.651,6.065-18.651H387.5l-8.624,24.787h-7.748l-8.59-24.787Z"/><path class="a" d="M404.172,419.642a8.862,8.862,0,0,1,3.611,3.488,11.455,11.455,0,0,1,0,10.658,8.864,8.864,0,0,1-3.611,3.489,11.852,11.852,0,0,1-10.43,0,8.842,8.842,0,0,1-3.629-3.489,11.455,11.455,0,0,1,0-10.658,8.839,8.839,0,0,1,3.629-3.488,11.843,11.843,0,0,1,10.43,0Zm-8.1,5.224a5.04,5.04,0,0,0-1.174,3.594,4.974,4.974,0,0,0,1.174,3.575,3.843,3.843,0,0,0,2.893,1.227,3.787,3.787,0,0,0,2.874-1.227A5.019,5.019,0,0,0,403,428.46a5.086,5.086,0,0,0-1.158-3.594,3.768,3.768,0,0,0-2.874-1.245A3.823,3.823,0,0,0,396.073,424.866Z"/><path class="a" d="M431.676,418.678v19.563h-6.03V434.7a6.5,6.5,0,0,1-2.507,2.734,7.278,7.278,0,0,1-3.874,1.017,6.771,6.771,0,0,1-5.347-2.244,8.995,8.995,0,0,1-1.981-6.17V418.678h5.96V429.3a4.361,4.361,0,0,0,1.035,3.1,3.631,3.631,0,0,0,2.787,1.1,3.692,3.692,0,0,0,2.875-1.157,4.733,4.733,0,0,0,1.052-3.3V418.678Z"/><path class="a" d="M450.993,420.518a9.258,9.258,0,0,1,3.226,5.733h-6.346a3.351,3.351,0,0,0-1.157-1.964,3.429,3.429,0,0,0-2.209-.7,3.2,3.2,0,0,0-2.594,1.244,6.983,6.983,0,0,0,0,7.258,3.2,3.2,0,0,0,2.594,1.245,3.429,3.429,0,0,0,2.209-.7,3.351,3.351,0,0,0,1.157-1.964h6.346a9.253,9.253,0,0,1-3.226,5.732,9.714,9.714,0,0,1-6.346,2.086,10.518,10.518,0,0,1-5.1-1.209,8.641,8.641,0,0,1-3.488-3.489,12,12,0,0,1-.018-10.676,8.525,8.525,0,0,1,3.489-3.47,10.605,10.605,0,0,1,5.118-1.21A9.719,9.719,0,0,1,450.993,420.518Z"/><path class="a" d="M475.1,420.711a9,9,0,0,1,1.981,6.171v11.359h-5.995V427.583a4.315,4.315,0,0,0-1.034-3.068,3.6,3.6,0,0,0-2.752-1.1,3.748,3.748,0,0,0-2.893,1.157,4.678,4.678,0,0,0-1.069,3.3v10.378h-6V412.3h6v9.956a6.456,6.456,0,0,1,2.506-2.769,7.354,7.354,0,0,1,3.91-1.017A6.772,6.772,0,0,1,475.1,420.711Z"/><path class="a" d="M499.34,419.449a5.911,5.911,0,0,1,2.349,2.77V412.3h5.995v25.944h-5.995V434.7a5.9,5.9,0,0,1-2.349,2.769,7.075,7.075,0,0,1-3.857,1.017,7.929,7.929,0,0,1-4.33-1.209,8.273,8.273,0,0,1-3.015-3.489,13.457,13.457,0,0,1,0-10.676,8.29,8.29,0,0,1,3.015-3.47,7.921,7.921,0,0,1,4.33-1.21A7.093,7.093,0,0,1,499.34,419.449Zm-5.031,5.5a5.818,5.818,0,0,0,0,7.012,4.4,4.4,0,0,0,6.205-.035,5.608,5.608,0,0,0,0-6.959,4.08,4.08,0,0,0-3.1-1.28A4.038,4.038,0,0,0,494.309,424.953Z"/><path class="a" d="M527.177,433.718h-9.291l-1.543,4.523h-6.31l9.08-24.612h6.906l9.081,24.612h-6.381Zm-1.543-4.558-3.085-9.115-3.121,9.115Z"/><path class="a" d="M553.944,419.642a8.3,8.3,0,0,1,3.016,3.47,13.457,13.457,0,0,1,0,10.676,8.282,8.282,0,0,1-3.016,3.489,7.925,7.925,0,0,1-4.329,1.209,7.071,7.071,0,0,1-3.857-1.017,5.888,5.888,0,0,1-2.349-2.769v12.867h-6V418.678h6v3.541a5.9,5.9,0,0,1,2.349-2.77,7.088,7.088,0,0,1,3.857-1.017A7.917,7.917,0,0,1,553.944,419.642Zm-9.36,5.329a5.608,5.608,0,0,0,0,6.959,4.4,4.4,0,0,0,6.205.035,5.822,5.822,0,0,0,0-7.012,4.422,4.422,0,0,0-6.205.018Z"/><path class="a" d="M577.714,419.642a8.3,8.3,0,0,1,3.016,3.47,13.457,13.457,0,0,1,0,10.676,8.282,8.282,0,0,1-3.016,3.489,7.925,7.925,0,0,1-4.329,1.209,7.071,7.071,0,0,1-3.857-1.017,5.888,5.888,0,0,1-2.349-2.769v12.867h-6V418.678h6v3.541a5.9,5.9,0,0,1,2.349-2.77,7.088,7.088,0,0,1,3.857-1.017A7.917,7.917,0,0,1,577.714,419.642Zm-9.36,5.329a5.608,5.608,0,0,0,0,6.959,4.4,4.4,0,0,0,6.205.035,5.822,5.822,0,0,0,0-7.012,4.422,4.422,0,0,0-6.205.018Z"/></g></g></g></g></svg>