<svg xmlns="http://www.w3.org/2000/svg" xmlns:xlink="http://www.w3.org/1999/xlink" width="302.295" height="58.881" viewBox="0 0 302.295 58.881"><defs><style>.a{fill:#5432d3;}.b{fill:url(#a);}.c{isolation:isolate;}.d{fill:#1a1818;}</style><linearGradient id="a" x1="1" y1="1.374" x2="0" y2="-0.296" gradientUnits="objectBoundingBox"><stop offset="0" stop-color="#fad961"/><stop offset="1" stop-color="#f76b1c"/></linearGradient></defs><g transform="translate(-491 -6037)"><g transform="translate(400.687 5968.279)"><g transform="translate(0 0.123)"><path class="a" d="M0,18.653A18.653,18.653,0,0,1,18.653,0H31.7c6.236,0,12.447,6.21,12.447,12.447h0c0,6.236-6.21,12.447-12.447,12.447H9.508A12.906,12.906,0,0,0,0,29.222H0Z" transform="translate(121.528 120.476) rotate(-135)"/><path class="b" d="M0,0H36.684a14.3,14.3,0,0,1,14.3,14.3v0a14.3,14.3,0,0,1-14.3,14.3H14.3A14.3,14.3,0,0,1,0,14.3V0A0,0,0,0,1,0,0Z" transform="translate(108.37 107.256) rotate(-45)"/></g><g class="c" transform="translate(-194.605 -421.125)"><g class="c"><path class="d" d="M374.334,503l6.065,18.651L386.464,503h6.416l-8.624,24.787h-7.748L367.918,503Z"/><path class="d" d="M409.551,509.191a8.862,8.862,0,0,1,3.611,3.488,11.455,11.455,0,0,1,0,10.658,8.864,8.864,0,0,1-3.611,3.489,11.852,11.852,0,0,1-10.43,0,8.842,8.842,0,0,1-3.629-3.489,11.455,11.455,0,0,1,0-10.658,8.839,8.839,0,0,1,3.629-3.488,11.852,11.852,0,0,1,10.43,0Zm-8.1,5.224a5.04,5.04,0,0,0-1.174,3.594,4.978,4.978,0,0,0,1.174,3.576,3.846,3.846,0,0,0,2.893,1.227,3.794,3.794,0,0,0,2.875-1.227,5.027,5.027,0,0,0,1.157-3.576,5.09,5.09,0,0,0-1.157-3.594,3.772,3.772,0,0,0-2.875-1.245A3.823,3.823,0,0,0,401.452,514.415Z"/><path class="d" d="M437.055,508.227V527.79h-6.03v-3.541a6.506,6.506,0,0,1-2.507,2.735A7.286,7.286,0,0,1,424.644,528a6.771,6.771,0,0,1-5.347-2.244,8.995,8.995,0,0,1-1.981-6.17V508.227h5.961V518.85a4.365,4.365,0,0,0,1.034,3.1,3.634,3.634,0,0,0,2.787,1.1,3.689,3.689,0,0,0,2.875-1.157,4.733,4.733,0,0,0,1.052-3.3V508.227Z"/><path class="d" d="M456.372,510.068A9.253,9.253,0,0,1,459.6,515.8h-6.346a3.351,3.351,0,0,0-1.157-1.964,3.429,3.429,0,0,0-2.209-.7,3.2,3.2,0,0,0-2.594,1.245,6.982,6.982,0,0,0,0,7.257,3.2,3.2,0,0,0,2.594,1.245,3.423,3.423,0,0,0,2.209-.7,3.351,3.351,0,0,0,1.157-1.964H459.6a9.25,9.25,0,0,1-3.226,5.732,9.713,9.713,0,0,1-6.346,2.086,10.518,10.518,0,0,1-5.1-1.209,8.641,8.641,0,0,1-3.488-3.489,11.994,11.994,0,0,1-.018-10.675,8.527,8.527,0,0,1,3.489-3.471,10.6,10.6,0,0,1,5.118-1.209A9.714,9.714,0,0,1,456.372,510.068Z"/><path class="d" d="M480.475,510.26a9,9,0,0,1,1.981,6.171V527.79h-5.995V517.132a4.315,4.315,0,0,0-1.034-3.068,3.6,3.6,0,0,0-2.752-1.1,3.748,3.748,0,0,0-2.893,1.157,4.679,4.679,0,0,0-1.069,3.3V527.79h-6V501.846h6V511.8a6.453,6.453,0,0,1,2.506-2.77,7.363,7.363,0,0,1,3.91-1.017A6.772,6.772,0,0,1,480.475,510.26Z"/><path class="d" d="M504.719,509a5.912,5.912,0,0,1,2.349,2.77v-9.922h5.995V527.79h-5.995v-3.541a5.9,5.9,0,0,1-2.349,2.769,7.075,7.075,0,0,1-3.857,1.017,7.928,7.928,0,0,1-4.33-1.209,8.273,8.273,0,0,1-3.015-3.489,13.454,13.454,0,0,1,0-10.675,8.287,8.287,0,0,1,3.015-3.471,7.92,7.92,0,0,1,4.33-1.209A7.092,7.092,0,0,1,504.719,509Zm-5.031,5.5a5.818,5.818,0,0,0,0,7.012,4.4,4.4,0,0,0,6.205-.035,5.608,5.608,0,0,0,0-6.959,4.08,4.08,0,0,0-3.1-1.279A4.037,4.037,0,0,0,499.688,514.5Z"/><path class="d" d="M532.556,523.267h-9.291l-1.543,4.523h-6.31l9.08-24.612H531.4l9.081,24.612H534.1Zm-1.543-4.558-3.085-9.115-3.121,9.115Z"/><path class="d" d="M559.323,509.191a8.3,8.3,0,0,1,3.016,3.471,13.454,13.454,0,0,1,0,10.675,8.282,8.282,0,0,1-3.016,3.489,7.925,7.925,0,0,1-4.329,1.209,7.07,7.07,0,0,1-3.857-1.017,5.887,5.887,0,0,1-2.349-2.769v12.867h-6V508.227h6v3.541a5.894,5.894,0,0,1,2.349-2.77,7.088,7.088,0,0,1,3.857-1.016A7.917,7.917,0,0,1,559.323,509.191Zm-9.36,5.329a5.608,5.608,0,0,0,0,6.959,4.4,4.4,0,0,0,6.205.035,5.822,5.822,0,0,0,0-7.012,4.425,4.425,0,0,0-6.205.018Z"/><path class="d" d="M583.093,509.191a8.3,8.3,0,0,1,3.016,3.471,13.454,13.454,0,0,1,0,10.675,8.282,8.282,0,0,1-3.016,3.489,7.925,7.925,0,0,1-4.329,1.209,7.071,7.071,0,0,1-3.857-1.017,5.893,5.893,0,0,1-2.349-2.769v12.867h-6V508.227h6v3.541a5.9,5.9,0,0,1,2.349-2.77,7.088,7.088,0,0,1,3.857-1.016A7.917,7.917,0,0,1,583.093,509.191Zm-9.36,5.329a5.608,5.608,0,0,0,0,6.959,4.4,4.4,0,0,0,6.205.035,5.822,5.822,0,0,0,0-7.012,4.425,4.425,0,0,0-6.205.018Z"/></g></g></g></g></svg>