<svg xmlns="http://www.w3.org/2000/svg" width="13.742" height="13.746" viewBox="0 0 13.742 13.746"><defs><style>.a{fill:#2255de;}</style></defs><g transform="translate(-3.938 -3.938)"><path class="a" d="M10.81,17.683A6.873,6.873,0,0,1,6.041,5.862a.552.552,0,1,1,.766.794A5.768,5.768,0,1,0,11.36,5.068V7.219a.553.553,0,1,1-1.107,0V4.491a.553.553,0,0,1,.553-.553,6.873,6.873,0,0,1,0,13.746Z" transform="translate(0 0)"/><path class="a" d="M11.8,11.316l3.419,2.457a1.035,1.035,0,0,1-1.2,1.684,1,1,0,0,1-.241-.241L11.316,11.8a.345.345,0,0,1,.481-.481Z" transform="translate(-3.74 -3.739)"/></g></svg>