<svg xmlns="http://www.w3.org/2000/svg" xmlns:xlink="http://www.w3.org/1999/xlink" width="26.061" height="26.061" viewBox="0 0 26.061 26.061"><defs><style>.a,.b{stroke:#5432d3;stroke-linecap:round;stroke-linejoin:round;stroke-width:2px;}.a{fill:url(#a);}.b{fill:none;}</style><linearGradient id="a" x1="0.5" x2="0.5" y2="1" gradientUnits="objectBoundingBox"><stop offset="0" stop-color="#fad961"/><stop offset="1" stop-color="#f76b1c"/></linearGradient></defs><g transform="translate(1 1.06)"><path class="a" d="M1317.838,946.686l2.194,2.195,1.013-1.013a4,4,0,0,0,1.171-2.765l.069-4.344,3.436-3.436a13.032,13.032,0,0,0,3.493-12.119,13.031,13.031,0,0,0-12.118,3.493l-3.436,3.435-4.345.069a4,4,0,0,0-2.765,1.171l-1.013,1.013,2.24,2.239" transform="translate(-1305.536 -924.88)"/><path class="a" d="M1330.919,933.51a2.236,2.236,0,0,1-.579,3.577,2.164,2.164,0,0,1-1.995,0,2.236,2.236,0,0,1-.579-3.577,2.2,2.2,0,0,1,.188-.168" transform="translate(-1312.729 -927.7)"/><g transform="translate(3.013 13.56)"><line class="b" x1="3.933" y2="3.933"/><line class="b" x1="3.065" y2="3.065" transform="translate(4.317 3.541)"/></g></g></svg>