<svg xmlns="http://www.w3.org/2000/svg" xmlns:xlink="http://www.w3.org/1999/xlink" width="375" height="812" viewBox="0 0 375 812"><defs><style>.a,.d{fill:#5432d3;}.b,.f,.g,.h,.i,.j,.k,.l,.m,.n,.o,.p{fill:none;}.c{clip-path:url(#a);}.d{stroke:#707070;}.e{opacity:0.726;mix-blend-mode:overlay;isolation:isolate;}.f,.g,.h,.i,.j,.k,.l,.m,.n,.o,.p{stroke:#fff;stroke-miterlimit:10;}.f{stroke-width:4px;stroke-dasharray:5;}.g{stroke-width:3.625px;stroke-dasharray:5.7;}.h{stroke-width:3.25px;stroke-dasharray:6.4;}.i{stroke-width:2.875px;stroke-dasharray:7.1;}.j{stroke-width:2.5px;stroke-dasharray:7.8;}.k{stroke-width:2.125px;stroke-dasharray:8.5;}.l{stroke-width:1.75px;stroke-dasharray:9.2;}.m{stroke-width:1.375px;stroke-dasharray:9.9;}.n{stroke-dasharray:10.6;}.o{stroke-width:0.625px;stroke-dasharray:11.3;}.p{stroke-width:0.25px;stroke-dasharray:12;}.q{stroke:none;}</style><clipPath id="a"><rect class="a" width="375" height="812"/></clipPath></defs><rect class="b" width="375" height="812"/><g class="c"><g class="d"><rect class="q" width="375" height="812"/><rect class="b" x="0.5" y="0.5" width="374" height="811"/></g><g class="e" transform="translate(-971.637 -536.766)"><rect class="f" width="165.849" height="165.849" transform="translate(1370.917 677.168) rotate(-18.72)"/><rect class="g" width="219.879" height="219.879" transform="translate(1336.661 660.252) rotate(-18.72)"/><rect class="h" width="273.908" height="273.908" transform="translate(1302.405 643.337) rotate(-18.72)"/><rect class="i" width="327.937" height="327.937" transform="translate(1268.149 626.422) rotate(-18.72)"/><rect class="j" width="381.967" height="381.967" transform="translate(1233.894 609.507) rotate(-18.72)"/><rect class="k" width="435.996" height="435.996" transform="translate(1199.638 592.592) rotate(-18.72)"/><rect class="l" width="490.025" height="490.025" transform="translate(1165.382 575.676) rotate(-18.72)"/><rect class="m" width="544.055" height="544.055" transform="translate(1131.126 558.761) rotate(-18.72)"/><rect class="n" width="598.084" height="598.084" transform="translate(1096.871 541.846) rotate(-18.72)"/><rect class="o" width="652.113" height="652.113" transform="translate(1062.615 524.931) rotate(-18.72)"/><rect class="p" width="706.142" height="706.142" transform="translate(1028.359 508.016) rotate(-18.72)"/></g><g class="e" transform="translate(-1628.637 -88.766)"><rect class="f" width="165.849" height="165.849" transform="translate(1370.917 677.168) rotate(-18.72)"/><rect class="g" width="219.879" height="219.879" transform="translate(1336.661 660.252) rotate(-18.72)"/><rect class="h" width="273.908" height="273.908" transform="translate(1302.405 643.337) rotate(-18.72)"/><rect class="i" width="327.937" height="327.937" transform="translate(1268.149 626.422) rotate(-18.72)"/><rect class="j" width="381.967" height="381.967" transform="translate(1233.894 609.507) rotate(-18.72)"/><rect class="k" width="435.996" height="435.996" transform="translate(1199.638 592.592) rotate(-18.72)"/><rect class="l" width="490.025" height="490.025" transform="translate(1165.382 575.676) rotate(-18.72)"/><rect class="m" width="544.055" height="544.055" transform="translate(1131.126 558.761) rotate(-18.72)"/><rect class="n" width="598.084" height="598.084" transform="translate(1096.871 541.846) rotate(-18.72)"/><rect class="o" width="652.113" height="652.113" transform="translate(1062.615 524.931) rotate(-18.72)"/><rect class="p" width="706.142" height="706.142" transform="translate(1028.359 508.016) rotate(-18.72)"/></g></g></svg>