<svg xmlns="http://www.w3.org/2000/svg" xmlns:xlink="http://www.w3.org/1999/xlink" width="375" height="812" viewBox="0 0 375 812"><defs><style>.a{fill:#5432d3;}.b{clip-path:url(#a);}.c{opacity:0.044;isolation:isolate;}.d,.e,.f,.g,.h,.i,.j,.k,.l,.m,.n{fill:none;stroke:#4d2cc8;stroke-miterlimit:10;}.d{stroke-width:4px;stroke-dasharray:5;}.e{stroke-width:3.625px;stroke-dasharray:5.7;}.f{stroke-width:3.25px;stroke-dasharray:6.4;}.g{stroke-width:2.875px;stroke-dasharray:7.1;}.h{stroke-width:2.5px;stroke-dasharray:7.8;}.i{stroke-width:2.125px;stroke-dasharray:8.5;}.j{stroke-width:1.75px;stroke-dasharray:9.2;}.k{stroke-width:1.375px;stroke-dasharray:9.9;}.l{stroke-dasharray:10.6;}.m{stroke-width:0.625px;stroke-dasharray:11.3;}.n{stroke-width:0.25px;stroke-dasharray:12;}</style><clipPath id="a"><rect class="a" width="375" height="812"/></clipPath></defs><g class="b"><g class="c" transform="translate(-971.637 -536.766)"><rect class="d" width="165.849" height="165.849" transform="translate(1370.917 677.168) rotate(-18.72)"/><rect class="e" width="219.879" height="219.879" transform="translate(1336.661 660.252) rotate(-18.72)"/><rect class="f" width="273.908" height="273.908" transform="translate(1302.405 643.337) rotate(-18.72)"/><rect class="g" width="327.937" height="327.937" transform="translate(1268.149 626.422) rotate(-18.72)"/><rect class="h" width="381.967" height="381.967" transform="translate(1233.894 609.507) rotate(-18.72)"/><rect class="i" width="435.996" height="435.996" transform="translate(1199.638 592.592) rotate(-18.72)"/><rect class="j" width="490.025" height="490.025" transform="translate(1165.382 575.676) rotate(-18.72)"/><rect class="k" width="544.055" height="544.055" transform="translate(1131.126 558.761) rotate(-18.72)"/><rect class="l" width="598.084" height="598.084" transform="translate(1096.871 541.846) rotate(-18.72)"/><rect class="m" width="652.113" height="652.113" transform="translate(1062.615 524.931) rotate(-18.72)"/><rect class="n" width="706.142" height="706.142" transform="translate(1028.359 508.016) rotate(-18.72)"/></g></g></svg>