<svg xmlns="http://www.w3.org/2000/svg" width="19.104" height="18.084" viewBox="0 0 19.104 18.084"><defs><style>.a,.b{fill:none;stroke-linecap:round;stroke-linejoin:round;stroke-width:2px;}.a{stroke:#482cc8;}.b{stroke:#ff6ad3;}</style></defs><g transform="translate(-739.926 -1010.447)"><g transform="translate(-564.61 -2811.235)"><g transform="translate(1305.536 3822.683)"><path class="a" d="M1320.414,3826.338h.8a1.425,1.425,0,0,1,1.425,1.425v11.5a1.425,1.425,0,0,1-1.425,1.425h-14.253a1.425,1.425,0,0,1-1.425-1.425v-11.5a1.425,1.425,0,0,1,1.425-1.425h10.471" transform="translate(-1305.536 -3824.601)"/><g transform="translate(4.902)"><line class="b" x2="0.003" y2="3.578" transform="translate(7.298)"/><line class="b" x1="0.003" y2="3.578"/></g><g transform="translate(4.902 7.875)"><path class="b" d="M1315.853,3839.28" transform="translate(-1315.853 -3839.269)"/><line class="b" y1="0.022"/><path class="b" d="M1315.853,3847.083" transform="translate(-1315.853 -3843.365)"/><line class="b" y1="0.022" transform="translate(0 3.707)"/><g transform="translate(3.639 0)"><path class="b" d="M1323.536,3839.28" transform="translate(-1323.525 -3839.269)"/><line class="b" x1="0.022" y1="0.022"/><path class="b" d="M1323.536,3847.083" transform="translate(-1323.525 -3843.365)"/><line class="b" x1="0.022" y1="0.022" transform="translate(0 3.707)"/><path class="b" d="M1323.536,3839.28" transform="translate(-1323.525 -3839.269)"/><path class="b" d="M1323.536,3847.083" transform="translate(-1323.525 -3843.365)"/></g><g transform="translate(7.301)"><line class="b" y1="0.022"/><line class="b" y1="0.022" transform="translate(0 3.707)"/></g></g></g></g></g></svg>