<svg xmlns="http://www.w3.org/2000/svg" width="35" height="35" viewBox="0 0 35 35"><defs><style>.a{fill:none;stroke:#2c1f9a;stroke-miterlimit:10;}.b,.c{fill:#2c1f9a;}.b{fill-rule:evenodd;}</style></defs><rect class="a" width="34" height="34" rx="17" transform="translate(0.5 0.5)"/><g transform="translate(8.5 6.5)"><path class="b" d="M20.216,10.5a.716.716,0,0,0-.716.716V16.94a.716.716,0,0,0,.716.716h2.862a.716.716,0,0,0,.716-.716V11.216a.716.716,0,0,0-.716-.716Zm2.147,1.431H20.931v4.293h1.431Z" transform="translate(-9.414 -3.138)"/><path class="c" d="M8.216,10.5a.716.716,0,0,0,0,1.431h2.862a.716.716,0,0,0,0-1.431Z" transform="translate(-3.138 -3.138)"/><path class="c" d="M8.216,16.5a.716.716,0,0,0,0,1.431h2.862a.716.716,0,0,0,0-1.431Z" transform="translate(-3.138 -6.276)"/><path class="c" d="M7.5,23.216a.716.716,0,0,1,.716-.716h2.862a.716.716,0,1,1,0,1.431H8.216A.716.716,0,0,1,7.5,23.216Z" transform="translate(-3.138 -9.414)"/><path class="b" d="M3.647,4.5A2.147,2.147,0,0,0,1.5,6.647v8.586a2.147,2.147,0,0,0,2.147,2.147H15.095a2.147,2.147,0,0,0,2.147-2.147V6.647A2.147,2.147,0,0,0,15.095,4.5ZM15.095,5.931H3.647a.716.716,0,0,0-.716.716v8.586a.716.716,0,0,0,.716.716H15.095a.716.716,0,0,0,.716-.716V6.647A.716.716,0,0,0,15.095,5.931Z" transform="translate(0)"/></g></svg>