<svg xmlns="http://www.w3.org/2000/svg" width="19.784" height="16.187" viewBox="0 0 19.784 16.187"><defs><style>.a,.b{fill:#ff6ad3;}.a,.c{fill-rule:evenodd;}.c{fill:#482cc8;}</style></defs><g transform="translate(-10 -11)"><g transform="translate(10 11)"><path class="a" d="M20.4,10.5a.9.9,0,0,0-.9.9v7.194a.9.9,0,0,0,.9.9H24a.9.9,0,0,0,.9-.9V11.4a.9.9,0,0,0-.9-.9Zm2.7,1.8H21.3v5.4h1.8Z" transform="translate(-8.709 -6.903)"/><path class="b" d="M8.4,10.5a.9.9,0,0,0,0,1.8H12a.9.9,0,0,0,0-1.8Z" transform="translate(-3.903 -6.903)"/><path class="b" d="M8.4,16.5a.9.9,0,0,0,0,1.8H12a.9.9,0,0,0,0-1.8Z" transform="translate(-3.903 -9.306)"/><path class="b" d="M7.5,23.4a.9.9,0,0,1,.9-.9H12a.9.9,0,0,1,0,1.8H8.4A.9.9,0,0,1,7.5,23.4Z" transform="translate(-3.903 -11.709)"/><path class="c" d="M4.2,4.5A2.7,2.7,0,0,0,1.5,7.2V17.989a2.7,2.7,0,0,0,2.7,2.7H18.586a2.7,2.7,0,0,0,2.7-2.7V7.2a2.7,2.7,0,0,0-2.7-2.7ZM18.586,6.3H4.2a.9.9,0,0,0-.9.9V17.989a.9.9,0,0,0,.9.9H18.586a.9.9,0,0,0,.9-.9V7.2A.9.9,0,0,0,18.586,6.3Z" transform="translate(-1.5 -4.5)"/></g></g></svg>