<svg xmlns="http://www.w3.org/2000/svg" width="23" height="36" viewBox="0 0 23 36"><defs><style>.a,.b,.c{fill:none;}.a{stroke:#a8a8a8;}.a,.b{stroke-linecap:round;stroke-linejoin:round;stroke-width:2px;}.b{stroke:#7e7c7c;}</style></defs><g transform="translate(-364.039 -1189.09)"><g transform="translate(371.945 1200.723)"><rect class="a" width="5.531" height="5.531" rx="2.766" transform="matrix(0.707, 0.707, -0.707, 0.707, 3.911, 0)"/></g><path class="b" d="M382.172,1197.09a7.821,7.821,0,0,1,7.811,8.031c-.3,7.1-7.811,11.881-7.811,11.881" transform="translate(-6.316 0)"/><path class="a" d="M368.953,1216.687c.1.312.207.617.328.916,2.017,5,6.984,8.157,6.984,8.157" transform="translate(-0.408 -8.758)"/><path class="a" d="M375.856,1197.09a7.821,7.821,0,0,0-7.811,8.031" transform="translate(0 0)"/><rect class="c" width="23" height="36" transform="translate(364.039 1189.09)"/></g></svg>