<svg xmlns="http://www.w3.org/2000/svg" width="35" height="35" viewBox="0 0 35 35"><defs><style>.a{fill:none;stroke:#2c1f9a;stroke-miterlimit:10;}.b{fill:#2c1f9a;fill-rule:evenodd;}</style></defs><g transform="translate(0.5 0.5)"><rect class="a" width="34" height="34" rx="17"/><g transform="translate(4.372 7.196)"><path class="b" d="M16.554,1.226H9.2A1.226,1.226,0,0,0,7.976,2.451V17.157A1.226,1.226,0,0,0,9.2,18.383h7.353a1.226,1.226,0,0,0,1.226-1.226V2.451A1.226,1.226,0,0,0,16.554,1.226ZM9.2,0A2.451,2.451,0,0,0,6.75,2.451V17.157A2.451,2.451,0,0,0,9.2,19.608h7.353a2.451,2.451,0,0,0,2.451-2.451V2.451A2.451,2.451,0,0,0,16.554,0Z"/><path class="b" d="M16.976,29.451a1.226,1.226,0,1,0-1.226-1.226A1.226,1.226,0,0,0,16.976,29.451Z" transform="translate(-4.098 -12.294)"/></g></g></svg>