<svg xmlns="http://www.w3.org/2000/svg" width="6.816" height="6.818" viewBox="0 0 6.816 6.818"><defs><style>.a{fill:#c4803c;stroke:#c3803c;stroke-width:0.2px;}</style></defs><g transform="translate(-3.838 -3.837)"><path class="a" d="M7.246,10.555a3.309,3.309,0,0,1-2.3-5.691.266.266,0,1,1,.369.382,2.777,2.777,0,1,0,2.192-.764V5.518a.266.266,0,1,1-.533,0V4.2a.266.266,0,0,1,.266-.266,3.309,3.309,0,0,1,0,6.618Z" transform="translate(0 0)"/><path class="a" d="M11.515,11.283l1.646,1.183a.5.5,0,0,1-.579.811.481.481,0,0,1-.116-.116l-1.183-1.646a.166.166,0,0,1,.232-.232Z" transform="translate(-5.593 -5.593)"/></g></svg>