<svg xmlns="http://www.w3.org/2000/svg" width="35" height="35" viewBox="0 0 35 35"><defs><style>.a{fill:none;stroke:#2c1f9a;stroke-miterlimit:10;}.b{fill:#2c1f9a;fill-rule:evenodd;}</style></defs><g transform="translate(0.5 0.5)"><rect class="a" width="34" height="34" rx="17"/><g transform="translate(9 8.368)"><path class="b" d="M0,20.455a1.458,1.458,0,0,0,1.458,1.458H14.09a1.458,1.458,0,0,0,1.458-1.458v-5.83h-.972v5.83a.486.486,0,0,1-.486.486H1.458a.486.486,0,0,1-.486-.486v-5.83H0Z" transform="translate(0 -7.031)"/><path class="b" d="M0,5.651A1.458,1.458,0,0,1,1.458,4.193H14.09a1.458,1.458,0,0,1,1.458,1.458V7.968L8.149,9.94a1.458,1.458,0,0,1-.75,0L0,7.968Zm1.458-.486a.486.486,0,0,0-.486.486v1.57L7.648,9A.486.486,0,0,0,7.9,9l6.676-1.78V5.651a.486.486,0,0,0-.486-.486Zm3.4-1.458A1.458,1.458,0,0,1,6.316,2.25H9.231a1.458,1.458,0,0,1,1.458,1.458v.486H9.717V3.708a.486.486,0,0,0-.486-.486H6.316a.486.486,0,0,0-.486.486v.486H4.859Z"/></g></g></svg>