<svg xmlns="http://www.w3.org/2000/svg" width="35" height="35" viewBox="0 0 35 35"><defs><style>.a{fill:none;stroke:#2c1f9a;stroke-miterlimit:10;}.b{fill:#2c1f9a;}</style></defs><g transform="translate(0.5 0.5)"><rect class="a" width="34" height="34" rx="17"/><g transform="translate(4.375 5.75)"><path class="b" d="M12.373,19.426,7.2,13.323q-.108-.137-.213-.276A6.68,6.68,0,0,1,5.625,9a6.748,6.748,0,1,1,13.5,0,6.677,6.677,0,0,1-1.359,4.047v0s-.184.242-.212.274Zm-4.41-7.119s.143.189.176.23l4.233,4.993,4.239-5c.027-.034.171-.224.171-.225A5.46,5.46,0,0,0,17.894,9,5.521,5.521,0,0,0,6.852,9a5.463,5.463,0,0,0,1.112,3.309Z"/><path class="b" d="M2.676,2.229A1.114,1.114,0,1,0,1.562,1.114,1.114,1.114,0,0,0,2.676,2.229ZM1.933,5.695l.357-.446-.857-.713-.639.8a.558.558,0,0,0-.011.683l.669.892a.557.557,0,0,0,.892-.669l-.41-.546ZM3.92,4.536l-.857.713.357.446-.41.546a.557.557,0,0,0,.892.669l.669-.892a.558.558,0,0,0-.011-.683l-.639-.8ZM5.249,2.02a.558.558,0,0,0-.776-.137l-.566.4a2.154,2.154,0,0,1-2.463,0l-.566-.4A.557.557,0,0,0,.239,2.8l.566.4a3.3,3.3,0,0,0,.758.389v.43H3.791V3.583a3.3,3.3,0,0,0,.758-.389l.566-.4A.558.558,0,0,0,5.249,2.02Z" transform="translate(9.623 5.87)"/></g></g></svg>