<svg xmlns="http://www.w3.org/2000/svg" width="35" height="35" viewBox="0 0 35 35"><defs><style>.a{fill:none;stroke:#2c1f9a;stroke-miterlimit:10;}.b{fill:#2c1f9a;}</style></defs><g transform="translate(0.5 0.5)"><rect class="a" width="34" height="34" rx="17"/><g transform="translate(4.375 5.75)"><path class="b" d="M15.442,15.134a3.067,3.067,0,1,1,3.067-3.067A3.067,3.067,0,0,1,15.442,15.134Zm0-4.907a1.84,1.84,0,1,0,1.84,1.84A1.84,1.84,0,0,0,15.442,10.227Z" transform="translate(-3.069 -3.069)"/><path class="b" d="M12.373,19.426,7.2,13.323q-.108-.137-.213-.276A6.68,6.68,0,0,1,5.625,9a6.748,6.748,0,1,1,13.5,0,6.677,6.677,0,0,1-1.359,4.047v0s-.184.242-.212.274Zm-4.41-7.119s.143.189.176.23l4.233,4.993,4.239-5c.027-.034.171-.224.171-.225A5.46,5.46,0,0,0,17.894,9,5.521,5.521,0,0,0,6.852,9a5.463,5.463,0,0,0,1.112,3.309Z"/></g></g></svg>