<svg xmlns="http://www.w3.org/2000/svg" width="12.891" height="16.291" viewBox="0 0 12.891 16.291"><defs><style>.a{fill:#2c1f9a;}.b,.c{fill:none;stroke-linecap:round;stroke-linejoin:round;stroke-width:1.5px;}.b{stroke:#482cc8;}.c{stroke:#ff6ad3;}</style></defs><g transform="translate(-742.945 -1012.754)"><g transform="translate(-564.61 -2811.235)"><g transform="translate(1305.536 3822.683)"><g transform="translate(-3.609 -1.817)"><path class="a" d="M2.353,1.959a.98.98,0,1,0-.98-.98A.979.979,0,0,0,2.353,1.959ZM1.7,5.006l.313-.392L1.26,3.987.7,4.69a.49.49,0,0,0-.01.6l.588.784a.49.49,0,0,0,.784-.588l-.36-.48ZM3.447,3.987l-.753.627.313.392-.36.48a.49.49,0,0,0,.784.588l.588-.784a.491.491,0,0,0-.01-.6l-.562-.7ZM4.615,1.775a.49.49,0,0,0-.682-.12L3.436,2A1.894,1.894,0,0,1,1.271,2l-.5-.348a.49.49,0,0,0-.563.8l.5.349a2.9,2.9,0,0,0,.666.342v.378H3.333V3.149A2.9,2.9,0,0,0,4,2.808l.5-.349A.491.491,0,0,0,4.615,1.775Z" transform="translate(9.623 6.87)"/><path class="b" d="M382.172,3821.608a5.7,5.7,0,0,1,5.69,5.851c-.215,5.169-5.69,8.655-5.69,8.655" transform="translate(-370.098 -3817.735)"/><path class="c" d="M368.953,3841.206c.071.227.151.449.239.666a14.538,14.538,0,0,0,5.088,5.943" transform="translate(-362.206 -3829.437)"/><path class="c" d="M373.734,3821.608a5.7,5.7,0,0,0-5.69,5.851" transform="translate(-361.66 -3817.735)"/></g></g></g></g></svg>