<svg xmlns="http://www.w3.org/2000/svg" width="35" height="35" viewBox="0 0 35 35"><defs><style>.a{fill:none;stroke:#2c1f9a;stroke-miterlimit:10;}.b{fill:#2c1f9a;}</style></defs><g transform="translate(0.5 0.5)"><rect class="a" width="34" height="34" rx="17"/><path class="b" d="M13.934,7.236a1.109,1.109,0,0,0-1.281-1.428.574.574,0,0,1-.243-1.123,2.254,2.254,0,0,1,2.619,2.9.575.575,0,0,1-1.1-.353ZM7.354,16.45C3.715,16.45,0,14.69,0,11.783c0-1.517.959-3.266,2.612-4.92,3.413-3.413,6.957-3.454,5.943-.2-.137.448.421.2.421.205,2.722-1.151,4.81-.575,3.9,1.76-.127.322.037.373.284.448,4.646,1.448,1.192,7.368-5.81,7.368Zm4.92-5.009C12.089,9.534,9.586,8.223,6.68,8.507s-5.095,2.065-4.91,3.971S4.458,15.7,7.364,15.412s5.095-2.065,4.91-3.971Zm-.363-9.083A.671.671,0,0,0,12.2,3.669,3.3,3.3,0,0,1,16.02,7.915a.673.673,0,0,0,1.281.411,4.64,4.64,0,0,0-5.389-5.967ZM9.223,13.005A3.128,3.128,0,0,1,5.488,14.59a2.159,2.159,0,0,1-1.38-3.071,3.178,3.178,0,0,1,3.54-1.544,2.161,2.161,0,0,1,1.575,3.03ZM6.269,11.979a1.106,1.106,0,0,0-1.3.442.774.774,0,0,0,.295,1.164A1.106,1.106,0,0,0,6.6,13.143.776.776,0,0,0,6.269,11.979Zm1.116-.459A.432.432,0,0,0,6.9,11.7a.3.3,0,0,0,.127.442.42.42,0,0,0,.5-.185.3.3,0,0,0-.137-.442Z" transform="translate(8 7.747)"/></g></svg>