<svg xmlns="http://www.w3.org/2000/svg" xmlns:xlink="http://www.w3.org/1999/xlink" width="15.194" height="12.35" viewBox="0 0 15.194 12.35"><defs><style>.a{clip-path:url(#a);}.b{fill:#55acee;}</style><clipPath id="a"><path d="M15.162,4.841a6.343,6.343,0,0,1-1.788.49,3.135,3.135,0,0,0,1.37-1.724,6.5,6.5,0,0,1-1.981.75A3.115,3.115,0,0,0,7.456,7.192,8.815,8.815,0,0,1,1.037,3.948,3.066,3.066,0,0,0,.614,5.517,3.112,3.112,0,0,0,2,8.107,3.1,3.1,0,0,1,.589,7.72v.038a3.118,3.118,0,0,0,2.5,3.056,3.131,3.131,0,0,1-1.4.054A3.129,3.129,0,0,0,4.6,13.032a6.253,6.253,0,0,1-3.863,1.33A6.177,6.177,0,0,1,0,14.32a8.858,8.858,0,0,0,4.786,1.4,8.8,8.8,0,0,0,8.861-8.855c0-.131,0-.265-.01-.4a6.235,6.235,0,0,0,1.558-1.613Z" transform="translate(741.701 1010.939)"/></clipPath></defs><g transform="translate(-741.698 -1014.309)"><g class="a"><path class="b" d="M15.194,1.511A6.246,6.246,0,0,1,13.4,2,3.126,3.126,0,0,0,14.774.277a6.243,6.243,0,0,1-1.979.756A3.12,3.12,0,0,0,7.483,3.877,8.849,8.849,0,0,1,1.058.62a3.121,3.121,0,0,0,.965,4.162,3.1,3.1,0,0,1-1.412-.39q0,.02,0,.039a3.119,3.119,0,0,0,2.5,3.057A3.122,3.122,0,0,1,1.7,7.541,3.12,3.12,0,0,0,4.616,9.706,6.255,6.255,0,0,1,.744,11.04,6.363,6.363,0,0,1,0,11a8.822,8.822,0,0,0,4.779,1.4,8.809,8.809,0,0,0,8.869-8.869q0-.2-.009-.4a6.336,6.336,0,0,0,1.555-1.614" transform="translate(741.698 1014.261)"/></g></g></svg>