<svg xmlns="http://www.w3.org/2000/svg" width="35" height="35" viewBox="0 0 35 35"><defs><style>.a{fill:none;stroke:#2c1f9a;stroke-miterlimit:10;}.b{fill:#2c1f9a;}</style></defs><rect class="a" width="34" height="34" rx="17" transform="translate(0.5 0.5)"/><path class="b" d="M9,9.75H7.5v1.5H9Zm3,0H10.5v1.5H12Zm3,0H13.5v1.5H15ZM16.5,4.5h-.75V3h-1.5V4.5h-6V3H6.75V4.5H6A1.493,1.493,0,0,0,4.507,6L4.5,16.5A1.5,1.5,0,0,0,6,18H16.5A1.5,1.5,0,0,0,18,16.5V6A1.5,1.5,0,0,0,16.5,4.5Zm0,12H6V8.25H16.5Z" transform="translate(6.5 7)"/></svg>