<svg xmlns="http://www.w3.org/2000/svg" width="35" height="35" viewBox="0 0 35 35"><defs><style>.a{fill:none;stroke:#2c1f9a;stroke-miterlimit:10;}.b{fill:#2c1f9a;}</style></defs><g transform="translate(0.5 0.5)"><rect class="a" width="34" height="34" rx="17"/><path class="b" d="M8.484,11.591c-.125.686-.622,3.886-.769,4.79-.011.065-.036.089-.107.089H4.941a.434.434,0,0,1-.433-.5L6.6,2.678a.727.727,0,0,1,.715-.6c5.445,0,5.9-.132,7.293.408,2.148.833,2.345,2.842,1.573,5.016-.769,2.238-2.591,3.2-5.008,3.228-1.551.025-2.485-.251-2.692.865Zm8.784-5.144c-.065-.046-.089-.065-.107.046a8.4,8.4,0,0,1-.315,1.2c-1.427,4.068-5.38,3.715-7.311,3.715a.359.359,0,0,0-.389.336c-.807,5.019-.969,6.066-.969,6.066a.38.38,0,0,0,.379.461h2.27a.642.642,0,0,0,.622-.532c.025-.193-.04.218.515-3.264.165-.787.511-.7,1.047-.7,2.539,0,4.519-1.03,5.108-4.015.232-1.244.165-2.553-.851-3.31Z" transform="translate(5.417 7.21)"/></g></svg>