<svg xmlns="http://www.w3.org/2000/svg" width="18.738" height="15.319" viewBox="0 0 18.738 15.319"><defs><style>.a{fill:#482cc8;stroke:#482cc8;}.a,.b{stroke-width:0.5px;fill-rule:evenodd;}.b{fill:#ff6ad3;stroke:#ff6ad3;}</style></defs><g transform="translate(-739.542 -1012.941)"><g transform="translate(739.792 1013.191)"><path class="a" d="M0,21.464a1.71,1.71,0,0,0,1.71,1.71H16.529a1.71,1.71,0,0,0,1.71-1.71V14.625H17.1v6.839a.57.57,0,0,1-.57.57H1.71a.57.57,0,0,1-.57-.57V14.625H0Z" transform="translate(0 -8.356)"/><path class="b" d="M0,6.24A1.71,1.71,0,0,1,1.71,4.53H16.529a1.71,1.71,0,0,1,1.71,1.71V8.957L9.559,11.271a1.71,1.71,0,0,1-.88,0L0,8.957Zm1.71-.57a.57.57,0,0,0-.57.57V8.082L8.972,10.17a.57.57,0,0,0,.294,0L17.1,8.082V6.24a.57.57,0,0,0-.57-.57ZM5.7,3.96a1.71,1.71,0,0,1,1.71-1.71h3.42a1.71,1.71,0,0,1,1.71,1.71v.57H11.4V3.96a.57.57,0,0,0-.57-.57H7.409a.57.57,0,0,0-.57.57v.57H5.7Z" transform="translate(0 -2.25)"/></g></g></svg>