<svg xmlns="http://www.w3.org/2000/svg" width="12.694" height="14.979" viewBox="0 0 12.694 14.979"><defs><style>.a{fill:#27346a;}.b{fill:#2790c3;}.c{fill:#1f264f;}</style></defs><g transform="translate(-743.119 -1013.45)"><g transform="translate(743.115 1013.353)"><path class="a" d="M10.812,1.226A4.625,4.625,0,0,0,7.261.1H2.606a.667.667,0,0,0-.658.562L.009,12.952a.4.4,0,0,0,.4.462H3.278L4,8.836l-.023.143a.665.665,0,0,1,.656-.562H6c2.683,0,4.784-1.09,5.4-4.242.018-.093.034-.184.048-.273h0a2.975,2.975,0,0,0-.631-2.676" transform="translate(0)"/><path class="a" d="M5.1,3.483a.584.584,0,0,1,.251-.057H9a7.613,7.613,0,0,1,1.2.087q.155.025.307.059.217.048.428.117a3.315,3.315,0,0,1,.5.213,2.976,2.976,0,0,0-.631-2.676A4.624,4.624,0,0,0,7.261.1H2.605a.667.667,0,0,0-.658.562L.009,12.952a.4.4,0,0,0,.395.462H3.278l1.5-9.5A.583.583,0,0,1,5.1,3.483Z" transform="translate(0)"/><path class="b" d="M15.679,9.483c-.614,3.152-2.714,4.242-5.4,4.242H8.916a.664.664,0,0,0-.656.562l-.9,5.692a.35.35,0,0,0,.345.4h2.423a.583.583,0,0,0,.575-.492l.024-.124.456-2.894.029-.16a.583.583,0,0,1,.575-.492h.362c2.347,0,4.184-.953,4.721-3.711a3.16,3.16,0,0,0-.485-2.79,2.315,2.315,0,0,0-.664-.512c-.014.089-.029.18-.048.273Z" transform="translate(-4.284 -5.308)"/><path class="c" d="M16.344,8.29q-.144-.042-.29-.074t-.307-.058a7.572,7.572,0,0,0-1.2-.088H10.893a.576.576,0,0,0-.251.057.582.582,0,0,0-.324.435L9.543,13.48l-.023.143a.664.664,0,0,1,.656-.562h1.366c2.683,0,4.784-1.09,5.4-4.242.018-.093.033-.184.048-.273a3.332,3.332,0,0,0-.5-.213l-.138-.043" transform="translate(-5.542 -4.644)"/></g></g></svg>