<svg xmlns="http://www.w3.org/2000/svg" width="35" height="35" viewBox="0 0 35 35"><defs><style>.a{fill:none;stroke:#2c1f9a;stroke-miterlimit:10;}.b{fill:#2c1f9a;}</style></defs><g transform="translate(0.5 0.5)"><rect class="a" width="34" height="34" rx="17"/><path class="b" d="M10.109,6C6.185,6,3,8.55,3,11.687A5.317,5.317,0,0,0,5.635,16.1L4.9,18.322,7.265,16.9a8.377,8.377,0,0,0,2.758.474,4.948,4.948,0,0,1-.389-1.9c0-3.137,2.967-5.687,6.635-5.687a3.264,3.264,0,0,1,.531.028A7.152,7.152,0,0,0,10.109,6M7.265,8.37a.948.948,0,1,1-.948.948.948.948,0,0,1,.948-.948M12,8.37a.948.948,0,1,1-.948.948A.948.948,0,0,1,12,8.37m4.265,2.37c-3.137,0-5.687,2.123-5.687,4.739s2.55,4.739,5.687,4.739a6.628,6.628,0,0,0,1.81-.237l1.981,1.185-.588-1.772a4.617,4.617,0,0,0,2.483-3.914c0-2.616-2.55-4.739-5.687-4.739m-1.9,2.37a.948.948,0,1,1-.948.948.948.948,0,0,1,.948-.948m3.791,0a.948.948,0,1,1-.948.948A.948.948,0,0,1,18.165,13.109Z" transform="translate(3.843 3.275)"/></g></svg>