<svg xmlns="http://www.w3.org/2000/svg" width="35" height="35" viewBox="0 0 35 35"><defs><style>.a{fill:none;stroke:#2c1f9a;stroke-miterlimit:10;}.b{fill:#2c1f9a;}</style></defs><rect class="a" width="34" height="34" rx="17" transform="translate(0.5 0.5)"/><path class="b" d="M8.14,1.189a4.262,4.262,0,0,1,3.954,2.548,8.03,8.03,0,0,1,.2,3.233v.039c-.008.12-.016.232-.021.341a.534.534,0,0,0,.268.06,1.9,1.9,0,0,0,.688-.2.65.65,0,0,1,.31-.071.943.943,0,0,1,.339.06.636.636,0,0,1,.489.56c.011.3-.26.56-.81.779-.057.018-.138.049-.229.078-.3.091-.758.24-.888.541a.7.7,0,0,0,.08.578l.011.011a4.7,4.7,0,0,0,3.193,2.675.334.334,0,0,1,.281.341.377.377,0,0,1-.032.148c-.159.38-.849.659-2.1.849a1.769,1.769,0,0,0-.109.38,3.16,3.16,0,0,1-.088.367.355.355,0,0,1-.373.271h-.018a2.159,2.159,0,0,1-.36-.049,4.051,4.051,0,0,0-.849-.091,3.31,3.31,0,0,0-.609.049,3.018,3.018,0,0,0-1.149.591,3.632,3.632,0,0,1-2.2.857c-.039,0-.078-.011-.12-.011H7.9a3.556,3.556,0,0,1-2.188-.857,2.936,2.936,0,0,0-1.138-.591,4.645,4.645,0,0,0-.617-.049,4.1,4.1,0,0,0-.849.1,1.932,1.932,0,0,1-.36.049.371.371,0,0,1-.388-.281c-.041-.128-.06-.261-.091-.377a1.951,1.951,0,0,0-.109-.38C.885,13.589.2,13.311.036,12.92A.4.4,0,0,1,0,12.769a.329.329,0,0,1,.281-.339A4.7,4.7,0,0,0,3.474,9.75l.011-.018a.667.667,0,0,0,.08-.581c-.13-.289-.589-.437-.888-.539a1.522,1.522,0,0,1-.232-.078c-.737-.292-.839-.62-.8-.849a.785.785,0,0,1,.779-.529.65.65,0,0,1,.255.049,1.841,1.841,0,0,0,.737.2.669.669,0,0,0,.31-.068L3.7,6.957a8.017,8.017,0,0,1,.2-3.225A4.19,4.19,0,0,1,7.816,1.2L8.1,1.19Z" transform="translate(9.001 8.811)"/></svg>