<svg xmlns="http://www.w3.org/2000/svg" width="12.891" height="16.291" viewBox="0 0 12.891 16.291"><defs><style>.a,.b{fill:none;stroke-linecap:round;stroke-linejoin:round;stroke-width:1.5px;}.a{stroke:#ff6ad3;}.b{stroke:#482cc8;}</style></defs><g transform="translate(-742.945 -1012.754)"><g transform="translate(375.657 -2808.104)"><g transform="translate(368.039 3821.608)"><g transform="translate(2.845 2.647)"><rect class="a" width="4.029" height="4.029" rx="2.015" transform="translate(2.849 0) rotate(45)"/></g><path class="b" d="M382.172,3821.608a5.7,5.7,0,0,1,5.69,5.851c-.215,5.169-5.69,8.655-5.69,8.655" transform="translate(-376.477 -3821.608)"/><path class="a" d="M368.953,3841.206c.071.227.151.449.239.666a14.538,14.538,0,0,0,5.088,5.943" transform="translate(-368.585 -3833.309)"/><path class="a" d="M373.734,3821.608a5.7,5.7,0,0,0-5.69,5.851" transform="translate(-368.039 -3821.608)"/></g></g></g></svg>