<svg xmlns="http://www.w3.org/2000/svg" width="35" height="35" viewBox="0 0 35 35"><defs><style>.a,.b{fill:none;stroke:#251b90;}.a{stroke-miterlimit:10;}.b{stroke-linecap:round;stroke-linejoin:round;}</style></defs><g transform="translate(0.5 0.5)"><rect class="a" width="34" height="34" rx="17"/><g transform="translate(10.5 8.5)"><g transform="translate(3.441 3.2)"><rect class="b" width="4.872" height="4.872" rx="2.436" transform="matrix(0.707, 0.707, -0.707, 0.707, 3.445, 0)"/></g><path class="b" d="M382.172,1197.09a6.89,6.89,0,0,1,6.88,7.075c-.26,6.251-6.88,10.466-6.88,10.466" transform="translate(-375.286 -1197.09)"/><path class="b" d="M368.953,1216.687c.086.274.183.543.289.807a17.581,17.581,0,0,0,6.152,7.186" transform="translate(-368.508 -1207.139)"/><path class="b" d="M374.925,1197.09a6.889,6.889,0,0,0-6.88,7.075" transform="translate(-368.039 -1197.09)"/></g></g></svg>