<svg xmlns="http://www.w3.org/2000/svg" xmlns:xlink="http://www.w3.org/1999/xlink" width="250.305" height="158.257" viewBox="0 0 250.305 158.257"><defs><style>.a{fill:#fff;}.b{fill:url(#a);}.c{isolation:isolate;}</style><linearGradient id="a" x1="1" y1="1.374" x2="0" y2="-0.296" gradientUnits="objectBoundingBox"><stop offset="0" stop-color="#fad961"/><stop offset="1" stop-color="#f76b1c"/></linearGradient></defs><g transform="translate(-63 -300.89)"><g transform="translate(0 -7)"><path class="a" d="M0,30A30,30,0,0,1,30,0H50.981C61.012,0,71,9.988,71,20.019h0c0,10.03-9.988,20.019-20.019,20.019H15.292A20.757,20.757,0,0,0,0,47H0Z" transform="translate(178.96 391.329) rotate(-135)"/><path class="b" d="M0,0H59A23,23,0,0,1,82,23v0A23,23,0,0,1,59,46H23A23,23,0,0,1,0,23V0A0,0,0,0,1,0,0Z" transform="translate(157.797 370.065) rotate(-45)"/></g><g class="c" transform="translate(-245.617 88.217)"><g class="c"><path class="a" d="M315.94,331.994l6.923,21.288,6.923-21.288h7.323l-9.844,28.291h-8.844l-9.8-28.291Z"/><path class="a" d="M356.137,339.056a10.133,10.133,0,0,1,4.122,3.982,13.082,13.082,0,0,1,0,12.165,10.133,10.133,0,0,1-4.122,3.982,13.528,13.528,0,0,1-11.9,0,10.1,10.1,0,0,1-4.142-3.982,13.082,13.082,0,0,1,0-12.165,10.1,10.1,0,0,1,4.142-3.982,13.528,13.528,0,0,1,11.9,0Zm-9.244,5.963a5.753,5.753,0,0,0-1.341,4.1,5.675,5.675,0,0,0,1.341,4.081,4.388,4.388,0,0,0,3.3,1.4,4.327,4.327,0,0,0,3.282-1.4,5.733,5.733,0,0,0,1.321-4.081,5.812,5.812,0,0,0-1.321-4.1,4.3,4.3,0,0,0-3.282-1.421A4.359,4.359,0,0,0,346.893,345.019Z"/><path class="a" d="M387.53,337.956v22.329h-6.883v-4.041a7.414,7.414,0,0,1-2.861,3.121,8.311,8.311,0,0,1-4.422,1.16,7.728,7.728,0,0,1-6.1-2.561A10.272,10.272,0,0,1,365,350.921V337.956h6.8v12.125a4.983,4.983,0,0,0,1.18,3.542,4.148,4.148,0,0,0,3.181,1.26,4.216,4.216,0,0,0,3.282-1.32,5.4,5.4,0,0,0,1.2-3.762V337.956Z"/><path class="a" d="M409.579,340.057a10.559,10.559,0,0,1,3.682,6.543h-7.243a3.827,3.827,0,0,0-1.321-2.242,3.911,3.911,0,0,0-2.521-.8,3.657,3.657,0,0,0-2.961,1.421,7.967,7.967,0,0,0,0,8.283,3.654,3.654,0,0,0,2.961,1.421,3.9,3.9,0,0,0,2.521-.8,3.823,3.823,0,0,0,1.321-2.242h7.243a10.554,10.554,0,0,1-3.682,6.543,11.088,11.088,0,0,1-7.243,2.381,12.005,12.005,0,0,1-5.823-1.38,9.866,9.866,0,0,1-3.981-3.982,12.343,12.343,0,0,1-1.441-6.082,12.468,12.468,0,0,1,1.421-6.1,9.729,9.729,0,0,1,3.982-3.962,12.117,12.117,0,0,1,5.842-1.38A11.093,11.093,0,0,1,409.579,340.057Z"/><path class="a" d="M437.091,340.277a10.273,10.273,0,0,1,2.261,7.043v12.965h-6.843V348.12a4.922,4.922,0,0,0-1.181-3.5,4.1,4.1,0,0,0-3.141-1.261,4.276,4.276,0,0,0-3.3,1.321,5.34,5.34,0,0,0-1.221,3.762v11.844h-6.843V330.673h6.843v11.364a7.371,7.371,0,0,1,2.861-3.161,8.4,8.4,0,0,1,4.462-1.16A7.732,7.732,0,0,1,437.091,340.277Z"/><path class="a" d="M464.763,338.836A6.757,6.757,0,0,1,467.444,342V330.673h6.843v29.612h-6.843v-4.041a6.75,6.75,0,0,1-2.681,3.161,8.086,8.086,0,0,1-4.4,1.16,9.049,9.049,0,0,1-4.943-1.38,9.446,9.446,0,0,1-3.441-3.982,15.36,15.36,0,0,1,0-12.185,9.467,9.467,0,0,1,3.441-3.962,9.049,9.049,0,0,1,4.943-1.38A8.1,8.1,0,0,1,464.763,338.836Zm-5.743,6.283a6.645,6.645,0,0,0,0,8,5.023,5.023,0,0,0,7.083-.04,6.4,6.4,0,0,0,0-7.943,5.05,5.05,0,0,0-7.083-.02Z"/><path class="a" d="M496.536,355.123H485.931l-1.76,5.162h-7.2l10.364-28.092h7.883l10.365,28.092H498.3Zm-1.761-5.2-3.522-10.4-3.561,10.4Z"/><path class="a" d="M527.089,339.056a9.467,9.467,0,0,1,3.441,3.962,15.349,15.349,0,0,1,0,12.185,9.446,9.446,0,0,1-3.441,3.982,9.048,9.048,0,0,1-4.942,1.38,8.077,8.077,0,0,1-4.4-1.16,6.727,6.727,0,0,1-2.681-3.161V370.93H508.22V337.956h6.844V342a6.735,6.735,0,0,1,2.681-3.162,8.085,8.085,0,0,1,4.4-1.16A9.048,9.048,0,0,1,527.089,339.056ZM516.4,345.139a6.4,6.4,0,0,0,0,7.943,5.023,5.023,0,0,0,7.083.04,6.641,6.641,0,0,0,0-8,5.05,5.05,0,0,0-7.083.02Z"/><path class="a" d="M554.22,339.056a9.476,9.476,0,0,1,3.442,3.962,15.359,15.359,0,0,1,0,12.185,9.455,9.455,0,0,1-3.442,3.982,9.045,9.045,0,0,1-4.942,1.38,8.079,8.079,0,0,1-4.4-1.16,6.733,6.733,0,0,1-2.681-3.161V370.93h-6.843V337.956H542.2V342a6.74,6.74,0,0,1,2.681-3.162,8.088,8.088,0,0,1,4.4-1.16A9.045,9.045,0,0,1,554.22,339.056Zm-10.684,6.083a6.4,6.4,0,0,0,0,7.943,5.023,5.023,0,0,0,7.083.04,6.645,6.645,0,0,0,0-8,5.05,5.05,0,0,0-7.083.02Z"/></g></g></g></svg>